<svg width="14" height="14" viewBox="0 0 14 14" fill="none" xmlns="http://www.w3.org/2000/svg">
<path d="M13.4 3.5L10.5 0.6C10.1 0.2 9.6 0 9.05 0H4.9C4.4 0 3.9 0.2 3.5 0.6L0.6 3.5C0.2 3.9 0 4.4 0 4.95V9.1C0 9.65 0.2 10.15 0.6 10.5L3.5 13.4C3.9 13.75 4.4 14 4.9 14H9.05C9.6 14 10.1 13.8 10.45 13.4L13.4 10.45C13.75 10.05 14 9.55 14 9.05V4.9C14 4.4 13.8 3.9 13.4 3.5Z" fill="#940101"/>
<path d="M6.90005 11.3501C5.75005 11.4001 5.95005 9.40007 7.05005 9.65007C8.20005 9.60007 8.05005 11.6001 6.90005 11.3501ZM7.00005 8.60008C6.70005 8.60008 6.55005 8.45008 6.55005 8.10008L6.20005 3.50008C6.15005 3.05008 6.50005 2.65008 6.95005 2.60008C7.40005 2.55008 7.80005 2.90008 7.85005 3.35008V3.50008L7.50005 8.10008C7.45005 8.45008 7.30005 8.60008 7.00005 8.60008Z" fill="#EEEEEE"/>
</svg>
